# xmcd
#
# Track frame offsets:
#	150
#	21874
#	30285
#	50134
#	66739
#	78015
#	96228
#	110031
#	118480
#
# Disc length: 1867 seconds
#
# Revision: 1
# Processed by: cddbd v1.5.1PL0 Copyright (c) Steve Scherf et al.
# Submitted via: audiograbber 1.83.01
#
DISCID=7d074909
DTITLE=Rambling Hillbillies - Alive, More Or Less
DYEAR=2003
DGENRE=Country
TTITLE0=Town This Size
TTITLE1=Steel Guitar Rag
TTITLE2=When I Dream
TTITLE3=Rose Connely
TTITLE4=Sunny Side Of Life
TTITLE5=A Miner´s Life
TTITLE6=Hickory Wind
TTITLE7=Liberty
TTITLE8=Leonora
EXTD=Second album recorded by this sensational band. Recorded in The Rambling S
EXTD=tudios in the summer of 2003. Produced by The Rambling Twins.
EXTT0=
EXTT1=
EXTT2=
EXTT3=
EXTT4=
EXTT5=
EXTT6=
EXTT7=
EXTT8=
PLAYORDER=
